<svg xmlns="http://www.w3.org/2000/svg" viewBox="0 0 1024 1024">
  <defs>
    <linearGradient id="bgGradient" x1="0%" y1="0%" x2="100%" y2="100%">
      <stop offset="0%" style="stop-color:#FF6B35"/>
      <stop offset="100%" style="stop-color:#E55A2B"/>
    </linearGradient>
    <filter id="shadow" x="-20%" y="-20%" width="140%" height="140%">
      <feDropShadow dx="0" dy="20" stdDeviation="40" flood-opacity="0.3"/>
    </filter>
  </defs>
  
  <!-- Background -->
  <rect width="1024" height="1024" rx="224" fill="url(#bgGradient)"/>
  
  <!-- Brain Icon -->
  <g transform="translate(262, 200)" filter="url(#shadow)">
    <path d="M250 0C175 0 115 60 115 135C115 150 118 165 125 180C105 195 90 220 90 250C90 280 105 305 125 320C118 335 115 350 115 365C115 440 175 500 250 500C325 500 385 440 385 365C385 350 382 335 375 320C395 305 410 280 410 250C410 220 395 195 375 180C382 165 385 150 385 135C385 60 325 0 250 0Z" fill="white"/>
    
    <!-- Brain Details -->
    <path d="M250 60C250 60 210 100 210 180C210 260 250 300 250 300C250 300 290 260 290 180C290 100 250 60 250 60Z" fill="#FF6B35" opacity="0.3"/>
    <circle cx="200" cy="200" r="30" fill="#FF6B35" opacity="0.4"/>
    <circle cx="300" cy="200" r="30" fill="#FF6B35" opacity="0.4"/>
    
    <!-- Sparkle/toss effect -->
    <g transform="translate(320, 50)">
      <path d="M0 30L20 0L40 30L20 60Z" fill="white" opacity="0.8"/>
    </g>
    <g transform="translate(380, 120)">
      <circle r="15" fill="white" opacity="0.6"/>
    </g>
    <g transform="translate(360, 180)">
      <circle r="8" fill="white" opacity="0.4"/>
    </g>
  </g>
  
  <!-- Paper plane hint -->
  <g transform="translate(620, 580) rotate(-30)">
    <path d="M0 0L80 40L0 80L20 40Z" fill="white" opacity="0.9"/>
  </g>
</svg>
