<svg xmlns="http://www.w3.org/2000/svg" viewBox="0 0 300 100">
  <defs>
    <linearGradient id="brandGradient" x1="0%" y1="0%" x2="100%" y2="100%">
      <stop offset="0%" style="stop-color:#FF6B35"/>
      <stop offset="100%" style="stop-color:#E55A2B"/>
    </linearGradient>
  </defs>
  
  <!-- Brain Icon -->
  <g transform="translate(10, 15)">
    <path d="M35 0C25 0 17 8 17 18C17 20 17.5 22 18.5 24C15.5 26 13.5 29 13.5 33C13.5 37 15.5 40 18.5 42C17.5 44 17 46 17 48C17 58 25 66 35 66C45 66 53 58 53 48C53 46 52.5 44 51.5 42C54.5 40 56.5 37 56.5 33C56.5 29 54.5 26 51.5 24C52.5 22 53 20 53 18C53 8 45 0 35 0Z" fill="url(#brandGradient)"/>
    <path d="M35 10C35 10 30 15 30 25C30 35 35 40 35 40C35 40 40 35 40 25C40 15 35 10 35 10Z" fill="white" opacity="0.3"/>
    <circle cx="28" cy="30" r="4" fill="white" opacity="0.4"/>
    <circle cx="42" cy="30" r="4" fill="white" opacity="0.4"/>
  </g>
  
  <!-- Text: MindToss -->
  <text x="80" y="62" font-family="system-ui, -apple-system, BlinkMacSystemFont, 'Segoe UI', Roboto, sans-serif" font-size="42" font-weight="800" fill="#2D3436">
    Mind<tspan fill="url(#brandGradient)">Toss</tspan>
  </text>
  
  <!-- Tagline -->
  <text x="80" y="82" font-family="system-ui, -apple-system, BlinkMacSystemFont, 'Segoe UI', Roboto, sans-serif" font-size="14" font-weight="500" fill="#636E72">
    Don't forget a thing
  </text>
</svg>
